name ./resultDataOpenSim/trcMotMarkerGrf/sub06/grf-03-02.mot
datacolumns 19
datarows 20
range 1.50400000 1.58000000
endheader

                time	     ground_force_vx	     ground_force_vy	     ground_force_vz	     ground_force_px	     ground_force_py	     ground_force_pz	   l_ground_force_vx	   l_ground_force_vy	   l_ground_force_vz	   l_ground_force_px	   l_ground_force_py	   l_ground_force_pz	     ground_torque_x	     ground_torque_y	     ground_torque_z	   l_ground_torque_x	   l_ground_torque_y	   l_ground_torque_z	
          1.50400000	         77.32455075	        551.97482315	        -22.67651683	          0.91115091	          0.00000000	          0.12288771	          0.00000000	          0.00000000	          0.00000000	          0.00000000	          0.00000000	          0.00000000	          0.00000000	          2.55944922	          0.00000000	          0.00000000	          0.00000000	          0.00000000	
          1.50800000	         81.75113044	        562.92271204	        -23.89681536	          0.91147226	          0.00000000	          0.12254590	          0.00000000	          0.00000000	          0.00000000	          0.00000000	          0.00000000	          0.00000000	          0.00000000	          2.66088399	          0.00000000	          0.00000000	          0.00000000	          0.00000000	
          1.51200000	         86.53608732	        574.05446655	        -25.52646051	          0.91178297	          0.00000000	          0.12221816	          0.00000000	          0.00000000	          0.00000000	          0.00000000	          0.00000000	          0.00000000	          0.00000000	          2.76065850	          0.00000000	          0.00000000	          0.00000000	          0.00000000	
          1.51600000	         91.62893993	        585.31860082	        -27.36826921	          0.91207948	          0.00000000	          0.12190691	          0.00000000	          0.00000000	          0.00000000	          0.00000000	          0.00000000	          0.00000000	          0.00000000	          2.85848565	          0.00000000	          0.00000000	          0.00000000	          0.00000000	
          1.52000000	         96.96963789	        596.66226922	        -29.18856673	          0.91236411	          0.00000000	          0.12160395	          0.00000000	          0.00000000	          0.00000000	          0.00000000	          0.00000000	          0.00000000	          0.00000000	          2.95468009	          0.00000000	          0.00000000	          0.00000000	          0.00000000	
          1.52400000	        102.50474548	        608.02458870	        -30.76308228	          0.91264189	          0.00000000	          0.12129406	          0.00000000	          0.00000000	          0.00000000	          0.00000000	          0.00000000	          0.00000000	          0.00000000	          3.04960385	          0.00000000	          0.00000000	          0.00000000	          0.00000000	
          1.52800000	        108.19783919	        619.32491356	        -31.91940000	          0.91291626	          0.00000000	          0.12096552	          0.00000000	          0.00000000	          0.00000000	          0.00000000	          0.00000000	          0.00000000	          0.00000000	          3.14318562	          0.00000000	          0.00000000	          0.00000000	          0.00000000	
          1.53200000	        114.03130697	        630.47188323	        -32.56536070	          0.91319455	          0.00000000	          0.12061575	          0.00000000	          0.00000000	          0.00000000	          0.00000000	          0.00000000	          0.00000000	          0.00000000	          3.23487441	          0.00000000	          0.00000000	          0.00000000	          0.00000000	
          1.53600000	        119.99506509	        641.38203121	        -32.69954790	          0.91348426	          0.00000000	          0.12024980	          0.00000000	          0.00000000	          0.00000000	          0.00000000	          0.00000000	          0.00000000	          0.00000000	          3.32416181	          0.00000000	          0.00000000	          0.00000000	          0.00000000	
          1.54000000	        126.06968543	        651.98508124	        -32.40662471	          0.91379052	          0.00000000	          0.11987464	          0.00000000	          0.00000000	          0.00000000	          0.00000000	          0.00000000	          0.00000000	          0.00000000	          3.41148064	          0.00000000	          0.00000000	          0.00000000	          0.00000000	
          1.54400000	        132.21616028	        662.21906998	        -31.83888173	          0.91411695	          0.00000000	          0.11949326	          0.00000000	          0.00000000	          0.00000000	          0.00000000	          0.00000000	          0.00000000	          0.00000000	          3.49904825	          0.00000000	          0.00000000	          0.00000000	          0.00000000	
          1.54800000	        138.37237269	        672.02599139	        -31.18512495	          0.91446246	          0.00000000	          0.11910459	          0.00000000	          0.00000000	          0.00000000	          0.00000000	          0.00000000	          0.00000000	          0.00000000	          3.59118373	          0.00000000	          0.00000000	          0.00000000	          0.00000000	
          1.55200000	        144.45547215	        681.34541316	        -30.63263861	          0.91482901	          0.00000000	          0.11870656	          0.00000000	          0.00000000	          0.00000000	          0.00000000	          0.00000000	          0.00000000	          0.00000000	          3.69380192	          0.00000000	          0.00000000	          0.00000000	          0.00000000	
          1.55600000	        150.37374417	        690.10304542	        -30.32965950	          0.91522404	          0.00000000	          0.11830080	          0.00000000	          0.00000000	          0.00000000	          0.00000000	          0.00000000	          0.00000000	          0.00000000	          3.81305351	          0.00000000	          0.00000000	          0.00000000	          0.00000000	
          1.56000000	        156.05168494	        698.19687967	        -30.35396888	          0.91564913	          0.00000000	          0.11789274	          0.00000000	          0.00000000	          0.00000000	          0.00000000	          0.00000000	          0.00000000	          0.00000000	          3.95330229	          0.00000000	          0.00000000	          0.00000000	          0.00000000	
          1.56400000	        161.46915340	        705.48397496	        -30.69200740	          0.91609915	          0.00000000	          0.11748898	          0.00000000	          0.00000000	          0.00000000	          0.00000000	          0.00000000	          0.00000000	          0.00000000	          4.11478923	          0.00000000	          0.00000000	          0.00000000	          0.00000000	
          1.56800000	        166.70663100	        711.77893578	        -31.23600957	          0.91656579	          0.00000000	          0.11709936	          0.00000000	          0.00000000	          0.00000000	          0.00000000	          0.00000000	          0.00000000	          0.00000000	          4.29151390	          0.00000000	          0.00000000	          0.00000000	          0.00000000	
          1.57200000	        171.97458532	        716.87583834	        -31.81178722	          0.91702642	          0.00000000	          0.11673381	          0.00000000	          0.00000000	          0.00000000	          0.00000000	          0.00000000	          0.00000000	          0.00000000	          4.47015265	          0.00000000	          0.00000000	          0.00000000	          0.00000000	
          1.57600000	        177.58109631	        720.58277802	        -32.24037365	          0.91743490	          0.00000000	          0.11639269	          0.00000000	          0.00000000	          0.00000000	          0.00000000	          0.00000000	          0.00000000	          0.00000000	          4.63111602	          0.00000000	          0.00000000	          0.00000000	          0.00000000	
          1.58000000	        183.80351982	        722.74386701	        -32.39430488	          0.91773141	          0.00000000	          0.11607200	          0.00000000	          0.00000000	          0.00000000	          0.00000000	          0.00000000	          0.00000000	          0.00000000	          4.75255495	          0.00000000	          0.00000000	          0.00000000	          0.00000000	
